<?xml version="1.0" encoding="utf-8"?>
<!-- Generator: Adobe Illustrator 21.1.0, SVG Export Plug-In . SVG Version: 6.00 Build 0)  -->
<svg version="1.1" xmlns="http://www.w3.org/2000/svg" xmlns:xlink="http://www.w3.org/1999/xlink" x="0px" y="0px"
	 viewBox="0 0 300 300" style="enable-background:new 0 0 300 300;" xml:space="preserve">
<style type="text/css">
	.st0{display:none;}
	.st1{display:inline;}
	.st2{fill:#003C8C;}
	.st3{fill:#FF6600;}
</style>
<g id="Ebene_2" class="st0">
	<g class="st1">
		<rect y="-658" class="st2" width="300" height="300"/>
	</g>
</g>
<g id="Ebene_1">
	<g>
		<ellipse class="st3" cx="143.4" cy="-525.1" rx="61.9" ry="31.8"/>
		<ellipse class="st3" cx="137.3" cy="-484.4" rx="50.4" ry="21.2"/>
		<ellipse class="st3" cx="188.5" cy="-493.3" rx="50.4" ry="21.2"/>
		<ellipse class="st3" cx="104.6" cy="-500.3" rx="56.6" ry="21.2"/>
		<ellipse class="st3" cx="205.3" cy="-518" rx="46" ry="23"/>
	</g>
	<g>
		<ellipse class="st3" cx="112.7" cy="182.7" rx="35.1" ry="15"/>
		<ellipse class="st3" cx="153.2" cy="188.1" rx="23.8" ry="13.8"/>
		<ellipse class="st3" cx="149.4" cy="204" rx="14.2" ry="7.9"/>
		<ellipse class="st3" cx="79.3" cy="190.6" rx="14.2" ry="7.9"/>
		<ellipse class="st3" cx="111.9" cy="201.5" rx="38.4" ry="12.1"/>
	</g>
	<g>
		<ellipse class="st3" cx="141.1" cy="-178.4" rx="36.8" ry="15.8"/>
		<ellipse class="st3" cx="183.6" cy="-172.7" rx="25" ry="14.5"/>
		<ellipse class="st3" cx="179.7" cy="-156.1" rx="14.9" ry="8.3"/>
		<ellipse class="st3" cx="106.1" cy="-170.1" rx="14.9" ry="8.3"/>
		<ellipse class="st3" cx="140.2" cy="-158.7" rx="40.3" ry="12.7"/>
	</g>
</g>
</svg>
